HIERARCHY
ROOT Hips
{
  OFFSET 3.88201 101.472 -137.614
  CHANNELS 6 Xposition Yposition Zposition Zrotation Xrotation Yrotation
  JOINT RightUpLeg
  {
    OFFSET -8.9458 -8.66707 0.101652
    CHANNELS 3 Zrotation Xrotation Yrotation
    JOINT RightLeg
    {
      OFFSET 0 -44.4227 1.3727
      CHANNELS 3 Zrotation Xrotation Yrotation
      JOINT RightFoot
      {
        OFFSET 0.253549 -42.0924 -1.46059
        CHANNELS 3 Zrotation Xrotation Yrotation
        JOINT RightToes
        {
          OFFSET 0.04 -4.41509 8.4991
          CHANNELS 3 Zrotation Xrotation Yrotation
          End Site
          {
            OFFSET -0.08 -0.137448 9.77979
          }
        }
      }
    }
  }
  JOINT Spine
  {
    OFFSET 0 11.8905 0
    CHANNELS 3 Zrotation Xrotation Yrotation
    JOINT Spine1
    {
      OFFSET 0 25.6574 0.127663
      CHANNELS 3 Zrotation Xrotation Yrotation
      JOINT HEad
      {
        OFFSET 0 8.73416 0.011341
        CHANNELS 3 Zrotation Xrotation Yrotation
        End Site
        {
          OFFSET -0.29 12.7742 2.51395
        }
      }
      JOINT LeftShoulder1
      {
        OFFSET 8.99 -0.362252 -0.22
        CHANNELS 3 Zrotation Xrotation Yrotation
        JOINT LeftArm
        {
          OFFSET 10.2827 -0.00338 0.322123
          CHANNELS 3 Zrotation Xrotation Yrotation
          JOINT LeftForeArm
          {
            OFFSET 32.7669 0.099144 -1.42434
            CHANNELS 3 Zrotation Xrotation Yrotation
            JOINT LeftHand
            {
              OFFSET 27.5643 0.085362 1.02216
              CHANNELS 3 Zrotation Xrotation Yrotation
              End Site
              {
                OFFSET 16.7443 -0.6 1.50291
              }
            }
          }
        }
      }
      JOINT RightShoulder
      {
        OFFSET -8.99 -0.362252 -0.22
        CHANNELS 3 Zrotation Xrotation Yrotation
        JOINT RightArm
        {
          OFFSET -10.2827 -0.00338 0.322123
          CHANNELS 3 Zrotation Xrotation Yrotation
          JOINT RightForeArm
          {
            OFFSET -32.8971 0.099144 -1.42434
            CHANNELS 3 Zrotation Xrotation Yrotation
            JOINT RightHand
            {
              OFFSET -27.4921 0.085362 1.02216
              CHANNELS 3 Zrotation Xrotation Yrotation
              End Site
              {
                OFFSET -16.6312 -0.6 1.50291
              }
            }
          }
        }
      }
    }
  }
  JOINT LeftUpLeg
  {
    OFFSET 8.9458 -8.66707 0.101652
    CHANNELS 3 Zrotation Xrotation Yrotation
    JOINT LeftLeg
    {
      OFFSET 0 -44.4227 1.3727
      CHANNELS 3 Zrotation Xrotation Yrotation
      JOINT LeftFoot
      {
        OFFSET -0.253549 -42.0924 -1.46059
        CHANNELS 3 Zrotation Xrotation Yrotation
        JOINT LeftToes
        {
          OFFSET -0.04 -4.41509 8.4991
          CHANNELS 3 Zrotation Xrotation Yrotation
          End Site
          {
            OFFSET 0.08 -0.047448 9.77979
          }
        }
      }
    }
  }
}
MOTION
Frames:	10
Frame Time:	0.0166667
2.56151 100.857 45.1176 -3.34286 -0.954917 -0.0653221 4.88697 -18.742 1.27929 6.08192 14.6422 -7.30662 -4.9147 -4.59682 -0.210231 0.0462048 0.000533964 0.662642 -3.2431 2.0293 0.387665 1.58957 2.96345 -0.331856 15.6887 -9.60065 -1.42229 -1.68501e-016 7.95139e-016 2.48481e-017 -103.824 -18.6232 -35.8846 -11.4722 12.9845 -8.85339 0.368473 9.90896 -0.00117927 2.00925 0.131363 -2.23323 78.1055 -58.2621 4.76445 -1.39997 12.5469 -3.92188 -0.369625 9.91382 0.00119887 2.8474 7.68614 6.40266 -1.9775 34.8798 13.0658 -1.98708 6.12593 0.244332 17.6261 -6.42935 0.922969 
2.29992 100.761 47.4392 -4.22513 -0.890371 -1.2032 6.47364 -18.4873 1.08418 5.7232 17.2112 -5.49891 -5.05354 -6.63321 -0.309342 0.0462048 0.000533964 0.662642 -3.39782 1.93608 0.665328 3.22028 2.51719 -0.48008 14.4415 -9.07424 -0.588389 -2.73329e-016 -7.95139e-016 1.98785e-016 -104.373 -20.8977 -33.8975 -11.6582 13.0164 -9.06978 0.368473 9.90896 -0.00117927 1.2146 0.145116 -1.97881 81.7785 -56.281 8.83376 -1.02385 12.5631 -4.07282 -0.369625 9.91382 0.00119887 3.76966 5.96792 6.50942 -1.58918 39.1935 14.6776 -2.33221 9.36876 0.340467 26.3899 -3.44813 -0.348783 
2.09387 100.616 49.5005 -5.22702 -0.930832 -2.3187 7.88938 -17.8502 1.18567 5.80501 18.9992 -4.37873 -5.53066 -8.30516 -0.409512 0.0462048 0.000533964 0.662642 -3.01131 1.9689 0.901422 4.74357 2.58897 -0.609089 13.4725 -8.62467 0.301633 8.69683e-016 -7.95139e-016 -0 -104.777 -22.8955 -32.4992 -11.4896 12.8687 -7.84161 0.368473 9.90896 -0.00117927 0.0865751 0.179124 -1.35574 85.4129 -53.5006 12.4305 -0.225157 12.5956 -4.39339 -0.369625 9.91382 0.00119887 4.62634 3.92764 7.37819 0.0220688 43.9341 14.6243 -2.48395 12.4822 0.420431 36.2995 1.73582 -3.77074 
1.90311 100.512 51.419 -6.12986 -1.01714 -3.18251 9.02021 -16.8975 1.35062 6.06281 20.0577 -3.73515 -6.06628 -9.5791 -0.496156 0.0462048 0.000533964 0.662642 -2.43258 2.04979 1.06924 5.94802 2.89213 -0.709577 12.7185 -8.27392 1.01171 2.48481e-017 -7.95139e-016 -0 -104.993 -24.5708 -31.4212 -11.1381 12.6479 -5.99811 0.368473 9.90896 -0.00117927 -0.92407 0.21652 -0.668865 88.4031 -50.2616 15.4765 0.898085 12.6119 -4.84305 -0.369625 9.91382 0.00119887 5.34055 1.62748 8.26772 2.31767 48.6778 13.9392 -2.38961 14.7049 0.450382 39.9396 6.49875 -6.41257 
1.6944 100.557 53.2623 -6.73947 -1.10874 -3.48503 9.65745 -15.6333 1.52287 6.43178 20.2387 -3.79672 -6.39479 -10.2478 -0.549772 0.0462048 0.000533964 0.662642 -1.77106 2.1479 1.10069 6.51743 3.23938 -0.766361 12.2389 -7.99465 1.22953 4.96962e-017 0 -7.95139e-016 -104.889 -25.7029 -30.6078 -10.9109 12.4521 -4.19544 0.368473 9.90896 -0.00117927 -1.31997 0.252585 -0.0577391 89.9812 -46.7768 17.6477 2.49906 12.5804 -5.48198 -0.369625 9.91382 0.00119887 5.69183 -0.801454 8.58497 4.73699 52.8463 13.2673 -1.86405 14.9063 0.360965 22.4674 8.36459 -4.5227 
1.48859 100.709 55.0422 -7.0715 -1.20003 -3.47956 9.91171 -14.162 1.7051 6.84204 19.8371 -4.17803 -6.63795 -10.691 -0.591391 0.0462048 0.000533964 0.662642 -1.22807 2.23405 1.08024 6.66341 3.59935 -0.789106 11.9475 -7.81022 1.22756 -4.96962e-017 -7.95139e-016 -0 -104.78 -26.793 -30.0386 -10.3982 12.2449 -2.13793 0.368473 9.90896 -0.00117927 -1.33935 0.28137 0.364071 91.0279 -43.2852 19.6908 4.11683 12.5159 -6.12661 -0.369625 9.91382 0.00119887 5.69614 -3.35982 8.49094 7.34843 56.3734 12.6255 -1.15309 14.0759 0.230338 2.15165 8.25266 -1.63324 
1.29818 100.993 56.7874 -7.02343 -1.28535 -3.31219 9.77759 -12.5478 1.90776 7.15161 19.0263 -4.55164 -6.84803 -11.2613 -0.639842 0.0462048 0.000533964 0.662642 -1.14042 2.24897 1.08931 6.46859 3.87943 -0.781159 11.7475 -7.74785 1.1841 0 0 -0 -105.039 -28.4107 -29.7933 -9.1547 11.9956 0.45542 0.368473 9.90896 -0.00117927 -1.0197 0.295566 0.395728 92.035 -40.0776 22.1796 5.28093 12.4157 -6.58878 -0.369625 9.91382 0.00119887 5.22447 -6.02903 7.89605 9.87534 58.9522 12.6013 -0.410099 12.7934 0.112323 -4.2107 5.68216 -0.50487 
1.11489 101.316 58.5148 -6.7582 -1.32346 -2.99492 9.40569 -10.9159 2.05473 7.39359 18.0224 -4.94137 -6.97837 -11.8324 -0.684515 0.0462048 0.000533964 0.662642 -1.21251 2.25199 1.06899 6.00271 4.076 -0.74609 11.706 -7.76503 1.06556 -4.47266e-016 -7.95139e-016 3.97569e-016 -105.246 -30.1934 -29.5774 -7.58691 11.7739 2.97093 0.368473 9.90896 -0.00117927 -0.464338 0.294619 0.159471 92.9041 -37.0414 24.8069 6.17582 12.3068 -6.94326 -0.369625 9.91382 0.00119887 4.42224 -8.74612 6.92627 12.1466 60.7233 12.6404 0.261799 11.1582 0.0147366 -5.1919 2.36014 0.0523633 
0.92753 101.595 60.2791 -6.40618 -1.27831 -2.47653 8.9476 -9.35303 1.99785 7.56059 17.0315 -5.2873 -6.96886 -12.4041 -0.719309 0.0462048 0.000533964 0.662642 -1.2404 2.28997 0.97008 5.30989 4.11274 -0.682034 11.9317 -7.80829 0.793048 5.71506e-016 7.95139e-016 -3.97569e-016 -104.871 -31.7806 -28.9392 -5.95812 11.6866 4.98704 0.368473 9.90896 -0.00117927 0.371008 0.260448 -0.498991 93.7048 -34.2163 27.5325 6.79667 12.2129 -7.27109 -0.369625 9.91382 0.00119887 3.37355 -11.4118 5.51926 14.1901 61.7135 12.0879 0.705259 9.42107 -0.0321704 -3.40319 0.0471071 0.269126 
0.757277 101.829 61.9963 -5.97069 -1.12816 -2.09296 8.43793 -8.03823 1.96948 7.68184 16.2566 -5.52606 -6.91116 -12.9495 -0.749326 0.0462048 0.000533964 0.662642 -1.2856 2.34112 0.844768 4.55158 4.11508 -0.608761 12.1989 -7.93763 0.680325 9.93923e-016 0 3.97569e-016 -104.485 -33.7521 -28.3128 -4.33498 11.6643 6.22539 0.368473 9.90896 -0.00117927 1.00336 0.238224 -0.950895 94.5563 -31.4624 30.2143 7.24469 12.1399 -7.36594 -0.369625 9.91382 0.00119887 2.21895 -14.086 4.12031 15.6884 61.9715 11.4197 0.953508 7.70833 -0.0477018 -0.481909 -1.9124 0.333607 
